<svg viewBox="0 0 800 800" xmlns="http://www.w3.org/2000/svg">
    <polygon points="336,463 336,338 411,338 411,463 " style="fill:rgb(211,211,211);stroke:rgb(211,211,211)" />
    <path d="M 411 438 L 411 463 L 361 463 M 349 463 L 336 463 L 336 426 M 336 413 L 336 338 L 374 338 M 386 338 L 411 338 L 411 426 M 411 438 " fill="none" stroke="black" stroke-linecap="square" stroke-width="2" />
    <text x="373" y="401" alignment-baseline="middle" text-anchor="middle" style="font-family: arial;" font-size="36">0</text>
    <polygon points="449,413 549,413 549,513 449,513 " style="fill:rgb(211,211,211);stroke:rgb(211,211,211)" />
    <path d="M 524 513 L 449 513 L 449 438 M 449 426 L 449 413 L 524 413 M 537 413 L 549 413 L 549 463 M 549 476 L 549 513 L 537 513 M 524 513 " fill="none" stroke="black" stroke-linecap="square" stroke-width="2" />
    <text x="499" y="463" alignment-baseline="middle" text-anchor="middle" style="font-family: arial;" font-size="36">1</text>
    <polygon points="324,300 324,200 424,200 424,300 " style="fill:rgb(211,211,211);stroke:rgb(211,211,211)" />
    <path d="M 424 263 L 424 300 L 386 300 M 374 300 L 324 300 L 324 200 L 361 200 M 374 200 L 424 200 L 424 250 M 424 263 " fill="none" stroke="black" stroke-linecap="square" stroke-width="2" />
    <text x="374" y="250" alignment-baseline="middle" text-anchor="middle" style="font-family: arial;" font-size="36">2</text>
    <polygon points="462,300 587,300 587,375 462,375 " style="fill:rgb(211,211,211);stroke:rgb(211,211,211)" />
    <path d="M 524 375 L 462 375 L 462 300 L 587 300 L 587 375 L 537 375 M 524 375 " fill="none" stroke="black" stroke-linecap="square" stroke-width="2" />
    <text x="524" y="338" alignment-baseline="middle" text-anchor="middle" style="font-family: arial;" font-size="36">3</text>
    <polygon points="499,676 499,551 574,551 574,676 " style="fill:rgb(211,211,211);stroke:rgb(211,211,211)" />
    <path d="M 574 551 L 574 676 L 499 676 L 499 551 L 524 551 M 537 551 L 574 551 " fill="none" stroke="black" stroke-linecap="square" stroke-width="2" />
    <text x="536" y="614" alignment-baseline="middle" text-anchor="middle" style="font-family: arial;" font-size="36">4</text>
    <polygon points="587,438 712,438 712,513 587,513 " style="fill:rgb(211,211,211);stroke:rgb(211,211,211)" />
    <path d="M 712 513 L 587 513 L 587 476 M 587 463 L 587 438 L 712 438 L 712 513 " fill="none" stroke="black" stroke-linecap="square" stroke-width="2" />
    <text x="649" y="476" alignment-baseline="middle" text-anchor="middle" style="font-family: arial;" font-size="36">5</text>
    <polygon points="462,275 462,150 537,150 537,275 " style="fill:rgb(211,211,211);stroke:rgb(211,211,211)" />
    <path d="M 537 150 L 537 275 L 462 275 L 462 263 M 462 250 L 462 150 L 537 150 " fill="none" stroke="black" stroke-linecap="square" stroke-width="2" />
    <text x="499" y="213" alignment-baseline="middle" text-anchor="middle" style="font-family: arial;" font-size="36">6</text>
    <polygon points="336,162 336,37 411,37 411,162 " style="fill:rgb(211,211,211);stroke:rgb(211,211,211)" />
    <path d="M 411 37 L 411 162 L 374 162 M 361 162 L 336 162 L 336 37 L 411 37 " fill="none" stroke="black" stroke-linecap="square" stroke-width="2" />
    <text x="373" y="100" alignment-baseline="middle" text-anchor="middle" style="font-family: arial;" font-size="36">7</text>
    <polygon points="198,501 198,401 298,401 298,501 " style="fill:rgb(211,211,211);stroke:rgb(211,211,211)" />
    <path d="M 298 426 L 298 501 L 223 501 M 211 501 L 198 501 L 198 426 M 198 413 L 198 401 L 261 401 M 273 401 L 298 401 L 298 413 M 298 426 " fill="none" stroke="black" stroke-linecap="square" stroke-width="2" />
    <text x="248" y="451" alignment-baseline="middle" text-anchor="middle" style="font-family: arial;" font-size="36">8</text>
    <polygon points="324,501 424,501 424,601 324,601 " style="fill:rgb(211,211,211);stroke:rgb(211,211,211)" />
    <path d="M 336 601 L 324 601 L 324 501 L 349 501 M 361 501 L 424 501 L 424 601 L 411 601 M 399 601 L 349 601 M 336 601 " fill="none" stroke="black" stroke-linecap="square" stroke-width="2" />
    <text x="374" y="551" alignment-baseline="middle" text-anchor="middle" style="font-family: arial;" font-size="36">9</text>
    <polygon points="173,664 173,539 248,539 248,664 " style="fill:rgb(211,211,211);stroke:rgb(211,211,211)" />
    <path d="M 248 539 L 248 664 L 173 664 L 173 539 L 211 539 M 223 539 L 248 539 " fill="none" stroke="black" stroke-linecap="square" stroke-width="2" />
    <text x="210" y="602" alignment-baseline="middle" text-anchor="middle" style="font-family: arial;" font-size="36">10</text>
    <polygon points="85,451 85,325 161,325 161,451 " style="fill:rgb(211,211,211);stroke:rgb(211,211,211)" />
    <path d="M 161 426 L 161 451 L 85 451 L 85 325 L 161 325 L 161 413 M 161 426 " fill="none" stroke="black" stroke-linecap="square" stroke-width="2" />
    <text x="123" y="388" alignment-baseline="middle" text-anchor="middle" style="font-family: arial;" font-size="36">11</text>
    <polygon points="211,363 211,238 286,238 286,363 " style="fill:rgb(211,211,211);stroke:rgb(211,211,211)" />
    <path d="M 286 238 L 286 363 L 273 363 M 261 363 L 211 363 L 211 238 L 286 238 " fill="none" stroke="black" stroke-linecap="square" stroke-width="2" />
    <text x="248" y="301" alignment-baseline="middle" text-anchor="middle" style="font-family: arial;" font-size="36">12</text>
    <polygon points="286,764 286,639 361,639 361,764 " style="fill:rgb(211,211,211);stroke:rgb(211,211,211)" />
    <path d="M 361 639 L 361 764 L 286 764 L 286 639 L 336 639 M 349 639 L 361 639 " fill="none" stroke="black" stroke-linecap="square" stroke-width="2" />
    <text x="323" y="702" alignment-baseline="middle" text-anchor="middle" style="font-family: arial;" font-size="36">13</text>
    <polygon points="386,764 386,639 462,639 462,764 " style="fill:rgb(211,211,211);stroke:rgb(211,211,211)" />
    <path d="M 462 639 L 462 764 L 386 764 L 386 639 L 399 639 M 411 639 L 462 639 " fill="none" stroke="black" stroke-linecap="square" stroke-width="2" />
    <text x="424" y="702" alignment-baseline="middle" text-anchor="middle" style="font-family: arial;" font-size="36">14</text>
    <polygon points="411,438 411,426 449,426 449,438 " style="fill:rgb(211,211,211);stroke:rgb(211,211,211)" />
    <path d="M 449 438 L 449 438 L 411 438 L 411 438 M 411 426 L 449 426 L 449 426 M 449 438 " fill="none" stroke="black" stroke-linecap="square" stroke-width="2" />
    <polygon points="374,300 386,300 386,338 374,338 " style="fill:rgb(211,211,211);stroke:rgb(211,211,211)" />
    <path d="M 374 338 L 374 338 L 374 300 L 374 300 M 386 300 L 386 338 L 386 338 M 374 338 " fill="none" stroke="black" stroke-linecap="square" stroke-width="2" />
    <polygon points="298,426 298,413 336,413 336,426 " style="fill:rgb(211,211,211);stroke:rgb(211,211,211)" />
    <path d="M 336 426 L 336 426 L 298 426 L 298 426 M 298 413 L 336 413 L 336 413 M 336 426 " fill="none" stroke="black" stroke-linecap="square" stroke-width="2" />
    <polygon points="349,463 361,463 361,501 349,501 " style="fill:rgb(211,211,211);stroke:rgb(211,211,211)" />
    <path d="M 349 501 L 349 501 L 349 463 L 349 463 M 361 463 L 361 501 L 361 501 M 349 501 " fill="none" stroke="black" stroke-linecap="square" stroke-width="2" />
    <polygon points="524,375 537,375 537,413 524,413 " style="fill:rgb(211,211,211);stroke:rgb(211,211,211)" />
    <path d="M 524 413 L 524 413 L 524 375 L 524 375 M 537 375 L 537 413 L 537 413 M 524 413 " fill="none" stroke="black" stroke-linecap="square" stroke-width="2" />
    <polygon points="524,513 537,513 537,551 524,551 " style="fill:rgb(211,211,211);stroke:rgb(211,211,211)" />
    <path d="M 524 551 L 524 551 L 524 513 L 524 513 M 537 513 L 537 551 L 537 551 M 524 551 " fill="none" stroke="black" stroke-linecap="square" stroke-width="2" />
    <polygon points="549,476 549,463 587,463 587,476 " style="fill:rgb(211,211,211);stroke:rgb(211,211,211)" />
    <path d="M 587 476 L 587 476 L 549 476 L 549 476 M 549 463 L 587 463 L 587 463 M 587 476 " fill="none" stroke="black" stroke-linecap="square" stroke-width="2" />
    <polygon points="424,263 424,250 462,250 462,263 " style="fill:rgb(211,211,211);stroke:rgb(211,211,211)" />
    <path d="M 462 263 L 462 263 L 424 263 L 424 263 M 424 250 L 462 250 L 462 250 M 462 263 " fill="none" stroke="black" stroke-linecap="square" stroke-width="2" />
    <polygon points="361,162 374,162 374,200 361,200 " style="fill:rgb(211,211,211);stroke:rgb(211,211,211)" />
    <path d="M 361 200 L 361 200 L 361 162 L 361 162 M 374 162 L 374 200 L 374 200 M 361 200 " fill="none" stroke="black" stroke-linecap="square" stroke-width="2" />
    <polygon points="211,501 223,501 223,539 211,539 " style="fill:rgb(211,211,211);stroke:rgb(211,211,211)" />
    <path d="M 211 539 L 211 539 L 211 501 L 211 501 M 223 501 L 223 539 L 223 539 M 211 539 " fill="none" stroke="black" stroke-linecap="square" stroke-width="2" />
    <polygon points="161,426 161,413 198,413 198,426 " style="fill:rgb(211,211,211);stroke:rgb(211,211,211)" />
    <path d="M 198 426 L 198 426 L 161 426 L 161 426 M 161 413 L 198 413 L 198 413 M 198 426 " fill="none" stroke="black" stroke-linecap="square" stroke-width="2" />
    <polygon points="261,363 273,363 273,401 261,401 " style="fill:rgb(211,211,211);stroke:rgb(211,211,211)" />
    <path d="M 261 401 L 261 401 L 261 363 L 261 363 M 273 363 L 273 401 L 273 401 M 261 401 " fill="none" stroke="black" stroke-linecap="square" stroke-width="2" />
    <polygon points="336,601 349,601 349,639 336,639 " style="fill:rgb(211,211,211);stroke:rgb(211,211,211)" />
    <path d="M 336 639 L 336 639 L 336 601 L 336 601 M 349 601 L 349 639 L 349 639 M 336 639 " fill="none" stroke="black" stroke-linecap="square" stroke-width="2" />
    <polygon points="399,601 411,601 411,639 399,639 " style="fill:rgb(211,211,211);stroke:rgb(211,211,211)" />
    <path d="M 399 639 L 399 639 L 399 601 L 399 601 M 411 601 L 411 639 L 411 639 M 399 639 " fill="none" stroke="black" stroke-linecap="square" stroke-width="2" />
</svg>
