<svg viewBox="0 0 800 800" xmlns="http://www.w3.org/2000/svg">
    <polygon points="332,475 332,327 421,327 421,475 " style="fill:rgb(211,211,211);stroke:rgb(211,211,211)" />
    <path d="M 421 357 L 421 475 L 406 475 M 391 475 L 332 475 L 332 461 M 332 446 L 332 327 L 421 327 L 421 342 M 421 357 " fill="none" stroke="black" stroke-linecap="square" stroke-width="2" />
    <text x="376" y="401" alignment-baseline="middle" text-anchor="middle" style="font-family: arial;" font-size="36">0</text>
    <polygon points="451,386 451,268 569,268 569,386 " style="fill:rgb(211,211,211);stroke:rgb(211,211,211)" />
    <path d="M 569 372 L 569 386 L 451 386 L 451 357 M 451 342 L 451 268 L 495 268 M 510 268 L 569 268 L 569 282 M 569 297 L 569 357 M 569 372 " fill="none" stroke="black" stroke-linecap="square" stroke-width="2" />
    <text x="510" y="327" alignment-baseline="middle" text-anchor="middle" style="font-family: arial;" font-size="36">1</text>
    <polygon points="347,535 436,535 436,624 347,624 " style="fill:rgb(211,211,211);stroke:rgb(211,211,211)" />
    <path d="M 391 624 L 347 624 L 347 535 L 391 535 M 406 535 L 436 535 L 436 550 M 436 564 L 436 624 L 406 624 M 391 624 " fill="none" stroke="black" stroke-linecap="square" stroke-width="2" />
    <text x="391" y="580" alignment-baseline="middle" text-anchor="middle" style="font-family: arial;" font-size="36">2</text>
    <polygon points="599,223 747,223 747,312 599,312 " style="fill:rgb(211,211,211);stroke:rgb(211,211,211)" />
    <path d="M 747 312 L 599 312 L 599 297 M 599 282 L 599 223 L 747 223 L 747 312 " fill="none" stroke="black" stroke-linecap="square" stroke-width="2" />
    <text x="673" y="268" alignment-baseline="middle" text-anchor="middle" style="font-family: arial;" font-size="36">3</text>
    <polygon points="436,208 436,60 525,60 525,208 " style="fill:rgb(211,211,211);stroke:rgb(211,211,211)" />
    <path d="M 525 60 L 525 208 L 510 208 M 495 208 L 436 208 L 436 60 L 525 60 " fill="none" stroke="black" stroke-linecap="square" stroke-width="2" />
    <text x="480" y="134" alignment-baseline="middle" text-anchor="middle" style="font-family: arial;" font-size="36">4</text>
    <polygon points="599,342 747,342 747,431 599,431 " style="fill:rgb(211,211,211);stroke:rgb(211,211,211)" />
    <path d="M 703 431 L 599 431 L 599 372 M 599 357 L 599 342 L 747 342 L 747 431 L 718 431 M 703 431 " fill="none" stroke="black" stroke-linecap="square" stroke-width="2" />
    <text x="673" y="387" alignment-baseline="middle" text-anchor="middle" style="font-family: arial;" font-size="36">5</text>
    <polygon points="495,490 644,490 644,579 495,579 " style="fill:rgb(211,211,211);stroke:rgb(211,211,211)" />
    <path d="M 644 579 L 495 579 L 495 564 M 495 550 L 495 490 L 644 490 L 644 520 M 644 535 L 644 579 " fill="none" stroke="black" stroke-linecap="square" stroke-width="2" />
    <text x="569" y="535" alignment-baseline="middle" text-anchor="middle" style="font-family: arial;" font-size="36">6</text>
    <polygon points="347,654 495,654 495,743 347,743 " style="fill:rgb(211,211,211);stroke:rgb(211,211,211)" />
    <path d="M 495 743 L 347 743 L 347 654 L 391 654 M 406 654 L 495 654 L 495 743 " fill="none" stroke="black" stroke-linecap="square" stroke-width="2" />
    <text x="421" y="699" alignment-baseline="middle" text-anchor="middle" style="font-family: arial;" font-size="36">7</text>
    <polygon points="183,550 183,431 302,431 302,550 " style="fill:rgb(211,211,211);stroke:rgb(211,211,211)" />
    <path d="M 302 461 L 302 550 L 258 550 M 243 550 L 183 550 L 183 535 M 183 520 L 183 431 L 228 431 M 243 431 L 302 431 L 302 446 M 302 461 " fill="none" stroke="black" stroke-linecap="square" stroke-width="2" />
    <text x="242" y="491" alignment-baseline="middle" text-anchor="middle" style="font-family: arial;" font-size="36">8</text>
    <polygon points="673,490 762,490 762,579 673,579 " style="fill:rgb(211,211,211);stroke:rgb(211,211,211)" />
    <path d="M 762 579 L 673 579 L 673 535 M 673 520 L 673 490 L 703 490 M 718 490 L 762 490 L 762 579 " fill="none" stroke="black" stroke-linecap="square" stroke-width="2" />
    <text x="717" y="535" alignment-baseline="middle" text-anchor="middle" style="font-family: arial;" font-size="36">9</text>
    <polygon points="35,475 124,475 124,564 35,564 " style="fill:rgb(211,211,211);stroke:rgb(211,211,211)" />
    <path d="M 124 564 L 35 564 L 35 475 L 124 475 L 124 520 M 124 535 L 124 564 " fill="none" stroke="black" stroke-linecap="square" stroke-width="2" />
    <text x="79" y="520" alignment-baseline="middle" text-anchor="middle" style="font-family: arial;" font-size="36">10</text>
    <polygon points="228,579 317,579 317,668 228,668 " style="fill:rgb(211,211,211);stroke:rgb(211,211,211)" />
    <path d="M 317 668 L 228 668 L 228 579 L 243 579 M 258 579 L 317 579 L 317 668 " fill="none" stroke="black" stroke-linecap="square" stroke-width="2" />
    <text x="272" y="624" alignment-baseline="middle" text-anchor="middle" style="font-family: arial;" font-size="36">11</text>
    <polygon points="183,372 183,223 272,223 272,372 " style="fill:rgb(211,211,211);stroke:rgb(211,211,211)" />
    <path d="M 272 223 L 272 372 L 243 372 M 228 372 L 183 372 L 183 223 L 272 223 " fill="none" stroke="black" stroke-linecap="square" stroke-width="2" />
    <text x="227" y="298" alignment-baseline="middle" text-anchor="middle" style="font-family: arial;" font-size="36">12</text>
    <polygon points="421,357 421,342 451,342 451,357 " style="fill:rgb(211,211,211);stroke:rgb(211,211,211)" />
    <path d="M 451 357 L 451 357 L 421 357 L 421 357 M 421 342 L 451 342 L 451 342 M 451 357 " fill="none" stroke="black" stroke-linecap="square" stroke-width="2" />
    <polygon points="391,475 406,475 406,535 391,535 " style="fill:rgb(211,211,211);stroke:rgb(211,211,211)" />
    <path d="M 391 535 L 391 535 L 391 475 L 391 475 M 406 475 L 406 535 L 406 535 M 391 535 " fill="none" stroke="black" stroke-linecap="square" stroke-width="2" />
    <polygon points="302,461 302,446 332,446 332,461 " style="fill:rgb(211,211,211);stroke:rgb(211,211,211)" />
    <path d="M 332 461 L 332 461 L 302 461 L 302 461 M 302 446 L 332 446 L 332 446 M 332 461 " fill="none" stroke="black" stroke-linecap="square" stroke-width="2" />
    <polygon points="569,297 569,282 599,282 599,297 " style="fill:rgb(211,211,211);stroke:rgb(211,211,211)" />
    <path d="M 599 297 L 599 297 L 569 297 L 569 297 M 569 282 L 599 282 L 599 282 M 599 297 " fill="none" stroke="black" stroke-linecap="square" stroke-width="2" />
    <polygon points="495,208 510,208 510,268 495,268 " style="fill:rgb(211,211,211);stroke:rgb(211,211,211)" />
    <path d="M 495 268 L 495 268 L 495 208 L 495 208 M 510 208 L 510 268 L 510 268 M 495 268 " fill="none" stroke="black" stroke-linecap="square" stroke-width="2" />
    <polygon points="569,372 569,357 599,357 599,372 " style="fill:rgb(211,211,211);stroke:rgb(211,211,211)" />
    <path d="M 599 372 L 599 372 L 569 372 L 569 372 M 569 357 L 599 357 L 599 357 M 599 372 " fill="none" stroke="black" stroke-linecap="square" stroke-width="2" />
    <polygon points="436,564 436,550 495,550 495,564 " style="fill:rgb(211,211,211);stroke:rgb(211,211,211)" />
    <path d="M 495 564 L 495 564 L 436 564 L 436 564 M 436 550 L 495 550 L 495 550 M 495 564 " fill="none" stroke="black" stroke-linecap="square" stroke-width="2" />
    <polygon points="391,624 406,624 406,654 391,654 " style="fill:rgb(211,211,211);stroke:rgb(211,211,211)" />
    <path d="M 391 654 L 391 654 L 391 624 L 391 624 M 406 624 L 406 654 L 406 654 M 391 654 " fill="none" stroke="black" stroke-linecap="square" stroke-width="2" />
    <polygon points="703,431 718,431 718,490 703,490 " style="fill:rgb(211,211,211);stroke:rgb(211,211,211)" />
    <path d="M 703 490 L 703 490 L 703 431 L 703 431 M 718 431 L 718 490 L 718 490 M 703 490 " fill="none" stroke="black" stroke-linecap="square" stroke-width="2" />
    <polygon points="644,535 644,520 673,520 673,535 " style="fill:rgb(211,211,211);stroke:rgb(211,211,211)" />
    <path d="M 673 535 L 673 535 L 644 535 L 644 535 M 644 520 L 673 520 L 673 520 M 673 535 " fill="none" stroke="black" stroke-linecap="square" stroke-width="2" />
    <polygon points="124,535 124,520 183,520 183,535 " style="fill:rgb(211,211,211);stroke:rgb(211,211,211)" />
    <path d="M 183 535 L 183 535 L 124 535 L 124 535 M 124 520 L 183 520 L 183 520 M 183 535 " fill="none" stroke="black" stroke-linecap="square" stroke-width="2" />
    <polygon points="243,550 258,550 258,579 243,579 " style="fill:rgb(211,211,211);stroke:rgb(211,211,211)" />
    <path d="M 243 579 L 243 579 L 243 550 L 243 550 M 258 550 L 258 579 L 258 579 M 243 579 " fill="none" stroke="black" stroke-linecap="square" stroke-width="2" />
    <polygon points="228,372 243,372 243,431 228,431 " style="fill:rgb(211,211,211);stroke:rgb(211,211,211)" />
    <path d="M 228 431 L 228 431 L 228 372 L 228 372 M 243 372 L 243 431 L 243 431 M 228 431 " fill="none" stroke="black" stroke-linecap="square" stroke-width="2" />
</svg>
