<svg viewBox="0 0 800 800" xmlns="http://www.w3.org/2000/svg">
    <polygon points="188,344 188,37 495,37 495,344 " style="fill:rgb(211,211,211);stroke:rgb(211,211,211)" />
    <path d="M 495 191 L 495 344 L 303 344 M 265 344 L 188 344 L 188 37 L 495 37 L 495 152 M 495 191 " fill="none" stroke="black" stroke-linecap="square" stroke-width="2" />
    <text x="341" y="191" alignment-baseline="middle" text-anchor="middle" style="font-family: arial;" font-size="18">0</text>
    <polygon points="495,458 495,76 724,76 724,458 " style="fill:rgb(211,211,211);stroke:rgb(211,211,211)" />
    <path d="M 724 76 L 724 458 L 648 458 M 609 458 L 495 458 L 495 191 M 495 152 L 495 76 L 724 76 " fill="none" stroke="black" stroke-linecap="square" stroke-width="2" />
    <text x="609" y="267" alignment-baseline="middle" text-anchor="middle" style="font-family: arial;" font-size="18">1</text>
    <polygon points="380,765 380,458 686,458 686,765 " style="fill:rgb(211,211,211);stroke:rgb(211,211,211)" />
    <path d="M 686 458 L 686 765 L 380 765 L 380 612 M 380 573 L 380 458 L 609 458 M 648 458 L 686 458 " fill="none" stroke="black" stroke-linecap="square" stroke-width="2" />
    <text x="533" y="612" alignment-baseline="middle" text-anchor="middle" style="font-family: arial;" font-size="18">2</text>
    <polygon points="73,650 73,344 380,344 380,650 " style="fill:rgb(211,211,211);stroke:rgb(211,211,211)" />
    <path d="M 380 612 L 380 650 L 73 650 L 73 344 L 265 344 M 303 344 L 380 344 L 380 573 M 380 612 " fill="none" stroke="black" stroke-linecap="square" stroke-width="2" />
    <text x="226" y="497" alignment-baseline="middle" text-anchor="middle" style="font-family: arial;" font-size="18">3</text>
</svg>
