<svg viewBox="0 0 800 800" xmlns="http://www.w3.org/2000/svg">
    <polygon points="36,631 36,300 234,300 234,631 " style="fill:rgb(211,211,211);stroke:rgb(211,211,211)" />
    <path d="M 234 466 L 234 631 L 36 631 L 36 300 L 234 300 L 234 333 M 234 366 L 234 433 M 234 466 " fill="none" stroke="black" stroke-linecap="square" stroke-width="2" />
    <text x="135" y="466" alignment-baseline="middle" text-anchor="middle" style="font-family: arial;" font-size="18">0</text>
    <polygon points="234,400 234,135 498,135 498,400 " style="fill:rgb(211,211,211);stroke:rgb(211,211,211)" />
    <path d="M 498 333 L 498 400 L 234 400 L 234 366 M 234 333 L 234 135 L 498 135 L 498 300 M 498 333 " fill="none" stroke="black" stroke-linecap="square" stroke-width="2" />
    <text x="366" y="268" alignment-baseline="middle" text-anchor="middle" style="font-family: arial;" font-size="18">1</text>
    <polygon points="498,499 498,234 763,234 763,499 " style="fill:rgb(211,211,211);stroke:rgb(211,211,211)" />
    <path d="M 763 234 L 763 499 L 498 499 L 498 466 M 498 433 L 498 333 M 498 300 L 498 234 L 763 234 " fill="none" stroke="black" stroke-linecap="square" stroke-width="2" />
    <text x="630" y="367" alignment-baseline="middle" text-anchor="middle" style="font-family: arial;" font-size="18">2</text>
    <polygon points="234,664 234,400 498,400 498,664 " style="fill:rgb(211,211,211);stroke:rgb(211,211,211)" />
    <path d="M 498 466 L 498 664 L 234 664 L 234 466 M 234 433 L 234 400 L 498 400 L 498 433 M 498 466 " fill="none" stroke="black" stroke-linecap="square" stroke-width="2" />
    <text x="366" y="532" alignment-baseline="middle" text-anchor="middle" style="font-family: arial;" font-size="18">3</text>
</svg>
