<svg viewBox="0 0 800 800" xmlns="http://www.w3.org/2000/svg">
    <polygon points="118,434 118,103 317,103 317,434 " style="fill:rgb(211,211,211);stroke:rgb(211,211,211)" />
    <path d="M 317 169 L 317 434 L 283 434 M 250 434 L 118 434 L 118 103 L 317 103 L 317 136 M 317 169 " fill="none" stroke="black" stroke-linecap="square" stroke-width="2" />
    <text x="217" y="269" alignment-baseline="middle" text-anchor="middle" style="font-family: arial;" font-size="18">0</text>
    <polygon points="317,367 317,37 515,37 515,367 " style="fill:rgb(211,211,211);stroke:rgb(211,211,211)" />
    <path d="M 515 37 L 515 367 L 482 367 M 449 367 L 317 367 L 317 169 M 317 136 L 317 37 L 515 37 " fill="none" stroke="black" stroke-linecap="square" stroke-width="2" />
    <text x="416" y="202" alignment-baseline="middle" text-anchor="middle" style="font-family: arial;" font-size="18">1</text>
    <polygon points="416,632 416,367 680,367 680,632 " style="fill:rgb(211,211,211);stroke:rgb(211,211,211)" />
    <path d="M 680 367 L 680 632 L 416 632 L 416 566 M 416 533 L 416 367 L 449 367 M 482 367 L 680 367 " fill="none" stroke="black" stroke-linecap="square" stroke-width="2" />
    <text x="548" y="500" alignment-baseline="middle" text-anchor="middle" style="font-family: arial;" font-size="18">2</text>
    <polygon points="217,764 217,434 416,434 416,764 " style="fill:rgb(211,211,211);stroke:rgb(211,211,211)" />
    <path d="M 416 566 L 416 764 L 217 764 L 217 434 L 250 434 M 283 434 L 416 434 L 416 533 M 416 566 " fill="none" stroke="black" stroke-linecap="square" stroke-width="2" />
    <text x="316" y="599" alignment-baseline="middle" text-anchor="middle" style="font-family: arial;" font-size="18">3</text>
</svg>
