<svg viewBox="0 0 800 800" xmlns="http://www.w3.org/2000/svg">
    <polygon points="300,384 300,54 498,54 498,384 " style="fill:rgb(211,211,211);stroke:rgb(211,211,211)" />
    <path d="M 498 351 L 498 384 L 300 384 L 300 351 M 300 318 L 300 54 L 498 54 L 498 318 M 498 351 " fill="none" stroke="black" stroke-linecap="square" stroke-width="2" />
    <text x="399" y="219" alignment-baseline="middle" text-anchor="middle" style="font-family: arial;" font-size="18">0</text>
    <polygon points="498,516 498,252 763,252 763,516 " style="fill:rgb(211,211,211);stroke:rgb(211,211,211)" />
    <path d="M 763 252 L 763 516 L 498 516 L 498 483 M 498 450 L 498 351 M 498 318 L 498 252 L 763 252 " fill="none" stroke="black" stroke-linecap="square" stroke-width="2" />
    <text x="630" y="384" alignment-baseline="middle" text-anchor="middle" style="font-family: arial;" font-size="18">1</text>
    <polygon points="300,748 300,417 498,417 498,748 " style="fill:rgb(211,211,211);stroke:rgb(211,211,211)" />
    <path d="M 498 483 L 498 748 L 300 748 L 300 483 M 300 450 L 300 417 L 498 417 L 498 450 M 498 483 " fill="none" stroke="black" stroke-linecap="square" stroke-width="2" />
    <text x="399" y="583" alignment-baseline="middle" text-anchor="middle" style="font-family: arial;" font-size="18">2</text>
    <polygon points="36,550 36,285 300,285 300,550 " style="fill:rgb(211,211,211);stroke:rgb(211,211,211)" />
    <path d="M 300 483 L 300 550 L 36 550 L 36 285 L 300 285 L 300 318 M 300 351 L 300 450 M 300 483 " fill="none" stroke="black" stroke-linecap="square" stroke-width="2" />
    <text x="168" y="418" alignment-baseline="middle" text-anchor="middle" style="font-family: arial;" font-size="18">3</text>
</svg>
