<svg viewBox="0 0 800 800" xmlns="http://www.w3.org/2000/svg">
    <polygon points="263,461 263,219 505,219 505,461 " style="fill:rgb(211,211,211);stroke:rgb(211,211,211)" />
    <path d="M 505 219 L 505 461 L 384 461 M 354 461 L 263 461 L 263 310 M 263 280 L 263 219 L 445 219 M 475 219 L 505 219 " fill="none" stroke="black" stroke-linecap="square" stroke-width="2" />
    <text x="384" y="340" alignment-baseline="middle" text-anchor="middle" style="font-family: arial;" font-size="36">0</text>
    <polygon points="324,764 324,461 505,461 505,764 " style="fill:rgb(211,211,211);stroke:rgb(211,211,211)" />
    <path d="M 505 461 L 505 764 L 324 764 L 324 613 M 324 583 L 324 461 L 354 461 M 384 461 L 505 461 " fill="none" stroke="black" stroke-linecap="square" stroke-width="2" />
    <text x="414" y="613" alignment-baseline="middle" text-anchor="middle" style="font-family: arial;" font-size="36">1</text>
    <polygon points="81,764 81,522 324,522 324,764 " style="fill:rgb(211,211,211);stroke:rgb(211,211,211)" />
    <path d="M 324 613 L 324 764 L 81 764 L 81 522 L 202 522 M 233 522 L 324 522 L 324 583 M 324 613 " fill="none" stroke="black" stroke-linecap="square" stroke-width="2" />
    <text x="202" y="643" alignment-baseline="middle" text-anchor="middle" style="font-family: arial;" font-size="36">2</text>
    <polygon points="81,522 81,219 263,219 263,522 " style="fill:rgb(211,211,211);stroke:rgb(211,211,211)" />
    <path d="M 263 310 L 263 522 L 233 522 M 202 522 L 81 522 L 81 219 L 263 219 L 263 280 M 263 310 " fill="none" stroke="black" stroke-linecap="square" stroke-width="2" />
    <text x="172" y="371" alignment-baseline="middle" text-anchor="middle" style="font-family: arial;" font-size="36">3</text>
    <polygon points="414,37 717,37 717,219 414,219 " style="fill:rgb(211,211,211);stroke:rgb(211,211,211)" />
    <path d="M 445 219 L 414 219 L 414 37 L 717 37 L 717 219 L 475 219 M 445 219 " fill="none" stroke="black" stroke-linecap="square" stroke-width="2" />
    <text x="565" y="128" alignment-baseline="middle" text-anchor="middle" style="font-family: arial;" font-size="36">4</text>
</svg>
