<svg viewBox="0 0 800 800" xmlns="http://www.w3.org/2000/svg">
    <polygon points="392,474 392,387 479,387 479,474 " style="fill:rgb(211,211,211);stroke:rgb(211,211,211)" />
    <path d="M 479 387 L 479 474 L 421 474 M 406 474 L 392 474 L 392 416 M 392 401 L 392 387 L 421 387 M 435 387 L 479 387 " fill="none" stroke="black" stroke-linecap="square" stroke-width="2" />
    <text x="435" y="431" alignment-baseline="middle" text-anchor="middle" style="font-family: arial;" font-size="36">0</text>
    <polygon points="217,314 334,314 334,430 217,430 " style="fill:rgb(211,211,211);stroke:rgb(211,211,211)" />
    <path d="M 232 430 L 217 430 L 217 343 M 217 328 L 217 314 L 232 314 M 246 314 L 334 314 L 334 401 M 334 416 L 334 430 L 246 430 M 232 430 " fill="none" stroke="black" stroke-linecap="square" stroke-width="2" />
    <text x="275" y="372" alignment-baseline="middle" text-anchor="middle" style="font-family: arial;" font-size="36">1</text>
    <polygon points="304,503 450,503 450,590 304,590 " style="fill:rgb(211,211,211);stroke:rgb(211,211,211)" />
    <path d="M 406 590 L 304 590 L 304 503 L 406 503 M 421 503 L 450 503 L 450 561 M 450 576 L 450 590 L 421 590 M 406 590 " fill="none" stroke="black" stroke-linecap="square" stroke-width="2" />
    <text x="377" y="547" alignment-baseline="middle" text-anchor="middle" style="font-family: arial;" font-size="36">2</text>
    <polygon points="72,357 72,270 159,270 159,357 " style="fill:rgb(211,211,211);stroke:rgb(211,211,211)" />
    <path d="M 159 343 L 159 357 L 72 357 L 72 270 L 159 270 L 159 328 M 159 343 " fill="none" stroke="black" stroke-linecap="square" stroke-width="2" />
    <text x="115" y="314" alignment-baseline="middle" text-anchor="middle" style="font-family: arial;" font-size="36">3</text>
    <polygon points="174,197 319,197 319,285 174,285 " style="fill:rgb(211,211,211);stroke:rgb(211,211,211)" />
    <path d="M 232 285 L 174 285 L 174 197 L 319 197 L 319 285 L 246 285 M 232 285 " fill="none" stroke="black" stroke-linecap="square" stroke-width="2" />
    <text x="246" y="241" alignment-baseline="middle" text-anchor="middle" style="font-family: arial;" font-size="36">4</text>
    <polygon points="174,547 174,459 261,459 261,547 " style="fill:rgb(211,211,211);stroke:rgb(211,211,211)" />
    <path d="M 261 459 L 261 547 L 203 547 M 188 547 L 174 547 L 174 459 L 232 459 M 246 459 L 261 459 " fill="none" stroke="black" stroke-linecap="square" stroke-width="2" />
    <text x="217" y="503" alignment-baseline="middle" text-anchor="middle" style="font-family: arial;" font-size="36">5</text>
    <polygon points="334,648 450,648 450,765 334,765 " style="fill:rgb(211,211,211);stroke:rgb(211,211,211)" />
    <path d="M 450 765 L 334 765 L 334 677 M 334 663 L 334 648 L 406 648 M 421 648 L 450 648 L 450 765 " fill="none" stroke="black" stroke-linecap="square" stroke-width="2" />
    <text x="392" y="707" alignment-baseline="middle" text-anchor="middle" style="font-family: arial;" font-size="36">6</text>
    <polygon points="479,532 595,532 595,648 479,648 " style="fill:rgb(211,211,211);stroke:rgb(211,211,211)" />
    <path d="M 595 648 L 479 648 L 479 576 M 479 561 L 479 532 L 595 532 L 595 648 " fill="none" stroke="black" stroke-linecap="square" stroke-width="2" />
    <text x="537" y="590" alignment-baseline="middle" text-anchor="middle" style="font-family: arial;" font-size="36">7</text>
    <polygon points="406,357 406,241 523,241 523,357 " style="fill:rgb(211,211,211);stroke:rgb(211,211,211)" />
    <path d="M 523 285 L 523 357 L 508 357 M 494 357 L 435 357 M 421 357 L 406 357 L 406 241 L 421 241 M 435 241 L 523 241 L 523 270 M 523 285 " fill="none" stroke="black" stroke-linecap="square" stroke-width="2" />
    <text x="464" y="299" alignment-baseline="middle" text-anchor="middle" style="font-family: arial;" font-size="36">8</text>
    <polygon points="159,605 304,605 304,692 159,692 " style="fill:rgb(211,211,211);stroke:rgb(211,211,211)" />
    <path d="M 304 692 L 159 692 L 159 605 L 188 605 M 203 605 L 304 605 L 304 663 M 304 677 L 304 692 " fill="none" stroke="black" stroke-linecap="square" stroke-width="2" />
    <text x="231" y="649" alignment-baseline="middle" text-anchor="middle" style="font-family: arial;" font-size="36">9</text>
    <polygon points="581,256 726,256 726,343 581,343 " style="fill:rgb(211,211,211);stroke:rgb(211,211,211)" />
    <path d="M 726 343 L 581 343 L 581 285 M 581 270 L 581 256 L 726 256 L 726 343 " fill="none" stroke="black" stroke-linecap="square" stroke-width="2" />
    <text x="653" y="300" alignment-baseline="middle" text-anchor="middle" style="font-family: arial;" font-size="36">10</text>
    <polygon points="479,474 479,387 566,387 566,474 " style="fill:rgb(211,211,211);stroke:rgb(211,211,211)" />
    <path d="M 566 387 L 566 474 L 479 474 L 479 387 L 494 387 M 508 387 L 566 387 " fill="none" stroke="black" stroke-linecap="square" stroke-width="2" />
    <text x="522" y="431" alignment-baseline="middle" text-anchor="middle" style="font-family: arial;" font-size="36">11</text>
    <polygon points="363,183 363,37 450,37 450,183 " style="fill:rgb(211,211,211);stroke:rgb(211,211,211)" />
    <path d="M 450 37 L 450 183 L 435 183 M 421 183 L 363 183 L 363 37 L 450 37 " fill="none" stroke="black" stroke-linecap="square" stroke-width="2" />
    <text x="406" y="110" alignment-baseline="middle" text-anchor="middle" style="font-family: arial;" font-size="36">12</text>
    <polygon points="334,416 334,401 392,401 392,416 " style="fill:rgb(211,211,211);stroke:rgb(211,211,211)" />
    <path d="M 392 416 L 392 416 L 334 416 L 334 416 M 334 401 L 392 401 L 392 401 M 392 416 " fill="none" stroke="black" stroke-linecap="square" stroke-width="2" />
    <polygon points="406,474 421,474 421,503 406,503 " style="fill:rgb(211,211,211);stroke:rgb(211,211,211)" />
    <path d="M 406 503 L 406 503 L 406 474 L 406 474 M 421 474 L 421 503 L 421 503 M 406 503 " fill="none" stroke="black" stroke-linecap="square" stroke-width="2" />
    <polygon points="421,357 435,357 435,387 421,387 " style="fill:rgb(211,211,211);stroke:rgb(211,211,211)" />
    <path d="M 421 387 L 421 387 L 421 357 L 421 357 M 435 357 L 435 387 L 435 387 M 421 387 " fill="none" stroke="black" stroke-linecap="square" stroke-width="2" />
    <polygon points="159,343 159,328 217,328 217,343 " style="fill:rgb(211,211,211);stroke:rgb(211,211,211)" />
    <path d="M 217 343 L 217 343 L 159 343 L 159 343 M 159 328 L 217 328 L 217 328 M 217 343 " fill="none" stroke="black" stroke-linecap="square" stroke-width="2" />
    <polygon points="232,285 246,285 246,314 232,314 " style="fill:rgb(211,211,211);stroke:rgb(211,211,211)" />
    <path d="M 232 314 L 232 314 L 232 285 L 232 285 M 246 285 L 246 314 L 246 314 M 232 314 " fill="none" stroke="black" stroke-linecap="square" stroke-width="2" />
    <polygon points="232,430 246,430 246,459 232,459 " style="fill:rgb(211,211,211);stroke:rgb(211,211,211)" />
    <path d="M 232 459 L 232 459 L 232 430 L 232 430 M 246 430 L 246 459 L 246 459 M 232 459 " fill="none" stroke="black" stroke-linecap="square" stroke-width="2" />
    <polygon points="406,590 421,590 421,648 406,648 " style="fill:rgb(211,211,211);stroke:rgb(211,211,211)" />
    <path d="M 406 648 L 406 648 L 406 590 L 406 590 M 421 590 L 421 648 L 421 648 M 406 648 " fill="none" stroke="black" stroke-linecap="square" stroke-width="2" />
    <polygon points="450,576 450,561 479,561 479,576 " style="fill:rgb(211,211,211);stroke:rgb(211,211,211)" />
    <path d="M 479 576 L 479 576 L 450 576 L 450 576 M 450 561 L 479 561 L 479 561 M 479 576 " fill="none" stroke="black" stroke-linecap="square" stroke-width="2" />
    <polygon points="188,547 203,547 203,605 188,605 " style="fill:rgb(211,211,211);stroke:rgb(211,211,211)" />
    <path d="M 188 605 L 188 605 L 188 547 L 188 547 M 203 547 L 203 605 L 203 605 M 188 605 " fill="none" stroke="black" stroke-linecap="square" stroke-width="2" />
    <polygon points="304,677 304,663 334,663 334,677 " style="fill:rgb(211,211,211);stroke:rgb(211,211,211)" />
    <path d="M 334 677 L 334 677 L 304 677 L 304 677 M 304 663 L 334 663 L 334 663 M 334 677 " fill="none" stroke="black" stroke-linecap="square" stroke-width="2" />
    <polygon points="523,285 523,270 581,270 581,285 " style="fill:rgb(211,211,211);stroke:rgb(211,211,211)" />
    <path d="M 581 285 L 581 285 L 523 285 L 523 285 M 523 270 L 581 270 L 581 270 M 581 285 " fill="none" stroke="black" stroke-linecap="square" stroke-width="2" />
    <polygon points="494,357 508,357 508,387 494,387 " style="fill:rgb(211,211,211);stroke:rgb(211,211,211)" />
    <path d="M 494 387 L 494 387 L 494 357 L 494 357 M 508 357 L 508 387 L 508 387 M 494 387 " fill="none" stroke="black" stroke-linecap="square" stroke-width="2" />
    <polygon points="421,183 435,183 435,241 421,241 " style="fill:rgb(211,211,211);stroke:rgb(211,211,211)" />
    <path d="M 421 241 L 421 241 L 421 183 L 421 183 M 435 183 L 435 241 L 435 241 M 421 241 " fill="none" stroke="black" stroke-linecap="square" stroke-width="2" />
</svg>
