<svg viewBox="0 0 800 800" xmlns="http://www.w3.org/2000/svg">
    <polygon points="140,196 140,126 209,126 209,196 " style="fill:rgb(211,211,211);stroke:rgb(211,211,211)" />
    <path d="M 209 171 L 209 196 L 140 196 L 140 126 L 209 126 L 209 164 M 209 171 " fill="none" stroke="black" stroke-linecap="square" stroke-width="2" />
    <text x="174" y="161" alignment-baseline="middle" text-anchor="middle" style="font-family: arial;" font-size="36">Spawn</text>
    <polygon points="292,139 292,152 348,152 348,139 380,139 380,221 348,221 348,208 292,208 292,221 260,221 260,139 " style="fill:rgb(211,211,211);stroke:rgb(211,211,211)" />
    <path d="M 260 164 L 260 139 L 292 139 L 292 152 L 348 152 L 348 139 L 380 139 L 380 221 L 367 221 M 361 221 L 348 221 L 348 208 L 292 208 L 292 221 L 260 221 L 260 171 M 260 164 " fill="none" stroke="black" stroke-linecap="square" stroke-width="2" />
    <text x="320" y="180" alignment-baseline="middle" text-anchor="middle" style="font-family: arial;" font-size="36">Normal</text>
    <polygon points="475,316 437,316 437,310 424,310 424,316 393,316 393,310 380,310 380,316 342,316 342,272 380,272 380,278 393,278 393,272 424,272 424,278 437,278 437,272 475,272 " style="fill:rgb(211,211,211);stroke:rgb(211,211,211)" />
    <path d="M 437 272 L 475 272 L 475 284 M 475 291 L 475 316 L 437 316 L 437 310 L 424 310 L 424 316 L 393 316 L 393 310 L 380 310 L 380 316 L 342 316 L 342 303 M 342 297 L 342 272 L 361 272 M 367 272 L 380 272 L 380 278 L 393 278 L 393 272 L 424 272 L 424 278 L 437 278 L 437 272 " fill="none" stroke="black" stroke-linecap="square" stroke-width="2" />
    <text x="408" y="294" alignment-baseline="middle" text-anchor="middle" style="font-family: arial;" font-size="36">Normal</text>
    <polygon points="152,335 241,335 241,322 152,322 152,278 292,278 292,379 203,379 203,392 292,392 292,436 152,436 " style="fill:rgb(211,211,211);stroke:rgb(211,211,211)" />
    <path d="M 273 436 L 152 436 L 152 335 L 241 335 L 241 322 L 152 322 L 152 278 L 292 278 L 292 297 M 292 303 L 292 379 L 203 379 L 203 392 L 292 392 L 292 405 M 292 411 L 292 436 L 279 436 M 273 436 " fill="none" stroke="black" stroke-linecap="square" stroke-width="2" />
    <text x="222" y="414" alignment-baseline="middle" text-anchor="middle" style="font-family: arial;" font-size="36">Normal</text>
    <polygon points="317,474 317,379 399,379 399,474 " style="fill:rgb(211,211,211);stroke:rgb(211,211,211)" />
    <path d="M 399 423 L 399 474 L 317 474 L 317 411 M 317 405 L 317 379 L 399 379 L 399 417 M 399 423 " fill="none" stroke="black" stroke-linecap="square" stroke-width="2" />
    <text x="358" y="427" alignment-baseline="middle" text-anchor="middle" style="font-family: arial;" font-size="36">Normal</text>
    <polygon points="450,468 450,329 589,329 589,468 " style="fill:rgb(211,211,211);stroke:rgb(211,211,211)" />
    <path d="M 589 436 L 589 468 L 450 468 L 450 423 M 450 417 L 450 329 L 589 329 L 589 430 M 589 436 " fill="none" stroke="black" stroke-linecap="square" stroke-width="2" />
    <text x="519" y="399" alignment-baseline="middle" text-anchor="middle" style="font-family: arial;" font-size="36">Boss</text>
    <polygon points="627,417 671,417 671,449 627,449 " style="fill:rgb(211,211,211);stroke:rgb(211,211,211)" />
    <path d="M 671 449 L 627 449 L 627 436 M 627 430 L 627 417 L 671 417 L 671 449 " fill="none" stroke="black" stroke-linecap="square" stroke-width="2" />
    <text x="649" y="433" alignment-baseline="middle" text-anchor="middle" style="font-family: arial;" font-size="36">Exit</text>
    <polygon points="513,227 608,227 608,310 513,310 " style="fill:rgb(211,211,211);stroke:rgb(211,211,211)" />
    <path d="M 608 310 L 513 310 L 513 291 M 513 284 L 513 227 L 570 227 M 576 227 L 608 227 L 608 240 M 608 246 L 608 310 " fill="none" stroke="black" stroke-linecap="square" stroke-width="2" />
    <text x="560" y="269" alignment-baseline="middle" text-anchor="middle" style="font-family: arial;" font-size="36">Normal</text>
    <polygon points="633,196 639,196 639,189 703,189 703,196 709,196 709,259 703,259 703,265 639,265 639,259 633,259 " style="fill:rgb(211,211,211);stroke:rgb(211,211,211)" />
    <path d="M 639 259 L 633 259 L 633 246 M 633 240 L 633 196 L 639 196 L 639 189 L 684 189 M 690 189 L 703 189 L 703 196 L 709 196 L 709 259 L 703 259 L 703 265 L 639 265 L 639 259 " fill="none" stroke="black" stroke-linecap="square" stroke-width="2" />
    <text x="671" y="228" alignment-baseline="middle" text-anchor="middle" style="font-family: arial;" font-size="36">Shop</text>
    <polygon points="753,38 753,152 658,152 658,38 " style="fill:rgb(211,211,211);stroke:rgb(211,211,211)" />
    <path d="M 658 133 L 658 38 L 753 38 L 753 152 L 690 152 M 684 152 L 658 152 L 658 139 M 658 133 " fill="none" stroke="black" stroke-linecap="square" stroke-width="2" />
    <text x="705" y="95" alignment-baseline="middle" text-anchor="middle" style="font-family: arial;" font-size="36">Normal</text>
    <polygon points="545,120 551,120 551,114 614,114 614,120 620,120 620,183 614,183 614,189 551,189 551,183 545,183 " style="fill:rgb(211,211,211);stroke:rgb(211,211,211)" />
    <path d="M 551 183 L 545 183 L 545 120 L 551 120 L 551 114 L 614 114 L 614 120 L 620 120 L 620 133 M 620 139 L 620 183 L 614 183 L 614 189 L 576 189 M 570 189 L 551 189 L 551 183 " fill="none" stroke="black" stroke-linecap="square" stroke-width="2" />
    <text x="582" y="152" alignment-baseline="middle" text-anchor="middle" style="font-family: arial;" font-size="36">Reward</text>
    <polygon points="203,601 203,474 304,474 304,601 " style="fill:rgb(211,211,211);stroke:rgb(211,211,211)" />
    <path d="M 304 474 L 304 601 L 254 601 M 247 601 L 203 601 L 203 506 M 203 499 L 203 474 L 273 474 M 279 474 L 304 474 " fill="none" stroke="black" stroke-linecap="square" stroke-width="2" />
    <text x="253" y="538" alignment-baseline="middle" text-anchor="middle" style="font-family: arial;" font-size="36">Hub</text>
    <polygon points="89,480 95,480 95,474 159,474 159,480 165,480 165,544 159,544 159,550 95,550 95,544 89,544 " style="fill:rgb(211,211,211);stroke:rgb(211,211,211)" />
    <path d="M 95 544 L 89 544 L 89 480 L 95 480 L 95 474 L 159 474 L 159 480 L 165 480 L 165 499 M 165 506 L 165 544 L 159 544 L 159 550 L 121 550 M 114 550 L 95 550 L 95 544 " fill="none" stroke="black" stroke-linecap="square" stroke-width="2" />
    <text x="127" y="512" alignment-baseline="middle" text-anchor="middle" style="font-family: arial;" font-size="36">Reward</text>
    <polygon points="45,695 45,601 140,601 140,695 " style="fill:rgb(211,211,211);stroke:rgb(211,211,211)" />
    <path d="M 140 670 L 140 695 L 45 695 L 45 601 L 114 601 M 121 601 L 140 601 L 140 664 M 140 670 " fill="none" stroke="black" stroke-linecap="square" stroke-width="2" />
    <text x="92" y="648" alignment-baseline="middle" text-anchor="middle" style="font-family: arial;" font-size="36">Normal</text>
    <polygon points="190,765 190,651 285,651 285,765 " style="fill:rgb(211,211,211);stroke:rgb(211,211,211)" />
    <path d="M 285 651 L 285 765 L 190 765 L 190 670 M 190 664 L 190 651 L 247 651 M 254 651 L 285 651 " fill="none" stroke="black" stroke-linecap="square" stroke-width="2" />
    <text x="237" y="708" alignment-baseline="middle" text-anchor="middle" style="font-family: arial;" font-size="36">Normal</text>
    <polygon points="209,158 260,158 260,177 209,177 " style="fill:rgb(211,211,211);stroke:rgb(211,211,211)" />
    <path d="M 260 177 L 209 177 L 209 171 M 209 164 L 209 158 L 260 158 L 260 164 M 260 171 L 260 177 " fill="none" stroke="black" stroke-linecap="square" stroke-width="2" />
    <polygon points="355,221 374,221 374,272 355,272 " style="fill:rgb(211,211,211);stroke:rgb(211,211,211)" />
    <path d="M 361 272 L 355 272 L 355 221 L 361 221 M 367 221 L 374 221 L 374 272 L 367 272 M 361 272 " fill="none" stroke="black" stroke-linecap="square" stroke-width="2" />
    <polygon points="292,291 342,291 342,310 292,310 " style="fill:rgb(211,211,211);stroke:rgb(211,211,211)" />
    <path d="M 342 310 L 292 310 L 292 303 M 292 297 L 292 291 L 342 291 L 342 297 M 342 303 L 342 310 " fill="none" stroke="black" stroke-linecap="square" stroke-width="2" />
    <polygon points="475,278 513,278 513,297 475,297 " style="fill:rgb(211,211,211);stroke:rgb(211,211,211)" />
    <path d="M 513 297 L 475 297 L 475 291 M 475 284 L 475 278 L 513 278 L 513 284 M 513 291 L 513 297 " fill="none" stroke="black" stroke-linecap="square" stroke-width="2" />
    <polygon points="292,398 317,398 317,417 292,417 " style="fill:rgb(211,211,211);stroke:rgb(211,211,211)" />
    <path d="M 317 417 L 292 417 L 292 411 M 292 405 L 292 398 L 317 398 L 317 405 M 317 411 L 317 417 " fill="none" stroke="black" stroke-linecap="square" stroke-width="2" />
    <polygon points="266,436 285,436 285,474 266,474 " style="fill:rgb(211,211,211);stroke:rgb(211,211,211)" />
    <path d="M 273 474 L 266 474 L 266 436 L 273 436 M 279 436 L 285 436 L 285 474 L 279 474 M 273 474 " fill="none" stroke="black" stroke-linecap="square" stroke-width="2" />
    <polygon points="399,411 450,411 450,430 399,430 " style="fill:rgb(211,211,211);stroke:rgb(211,211,211)" />
    <path d="M 450 430 L 399 430 L 399 423 M 399 417 L 399 411 L 450 411 L 450 417 M 450 423 L 450 430 " fill="none" stroke="black" stroke-linecap="square" stroke-width="2" />
    <polygon points="589,423 627,423 627,442 589,442 " style="fill:rgb(211,211,211);stroke:rgb(211,211,211)" />
    <path d="M 627 442 L 589 442 L 589 436 M 589 430 L 589 423 L 627 423 L 627 430 M 627 436 L 627 442 " fill="none" stroke="black" stroke-linecap="square" stroke-width="2" />
    <polygon points="608,234 633,234 633,253 608,253 " style="fill:rgb(211,211,211);stroke:rgb(211,211,211)" />
    <path d="M 633 253 L 608 253 L 608 246 M 608 240 L 608 234 L 633 234 L 633 240 M 633 246 L 633 253 " fill="none" stroke="black" stroke-linecap="square" stroke-width="2" />
    <polygon points="563,189 582,189 582,227 563,227 " style="fill:rgb(211,211,211);stroke:rgb(211,211,211)" />
    <path d="M 570 227 L 563 227 L 563 189 L 570 189 M 576 189 L 582 189 L 582 227 L 576 227 M 570 227 " fill="none" stroke="black" stroke-linecap="square" stroke-width="2" />
    <polygon points="677,152 696,152 696,189 677,189 " style="fill:rgb(211,211,211);stroke:rgb(211,211,211)" />
    <path d="M 684 189 L 677 189 L 677 152 L 684 152 M 690 152 L 696 152 L 696 189 L 690 189 M 684 189 " fill="none" stroke="black" stroke-linecap="square" stroke-width="2" />
    <polygon points="620,126 658,126 658,145 620,145 " style="fill:rgb(211,211,211);stroke:rgb(211,211,211)" />
    <path d="M 658 145 L 620 145 L 620 139 M 620 133 L 620 126 L 658 126 L 658 133 M 658 139 L 658 145 " fill="none" stroke="black" stroke-linecap="square" stroke-width="2" />
    <polygon points="165,493 203,493 203,512 165,512 " style="fill:rgb(211,211,211);stroke:rgb(211,211,211)" />
    <path d="M 203 512 L 165 512 L 165 506 M 165 499 L 165 493 L 203 493 L 203 499 M 203 506 L 203 512 " fill="none" stroke="black" stroke-linecap="square" stroke-width="2" />
    <polygon points="241,601 260,601 260,651 241,651 " style="fill:rgb(211,211,211);stroke:rgb(211,211,211)" />
    <path d="M 247 651 L 241 651 L 241 601 L 247 601 M 254 601 L 260 601 L 260 651 L 254 651 M 247 651 " fill="none" stroke="black" stroke-linecap="square" stroke-width="2" />
    <polygon points="108,550 127,550 127,601 108,601 " style="fill:rgb(211,211,211);stroke:rgb(211,211,211)" />
    <path d="M 114 601 L 108 601 L 108 550 L 114 550 M 121 550 L 127 550 L 127 601 L 121 601 M 114 601 " fill="none" stroke="black" stroke-linecap="square" stroke-width="2" />
    <polygon points="140,657 190,657 190,676 140,676 " style="fill:rgb(211,211,211);stroke:rgb(211,211,211)" />
    <path d="M 190 676 L 140 676 L 140 670 M 140 664 L 140 657 L 190 657 L 190 664 M 190 670 L 190 676 " fill="none" stroke="black" stroke-linecap="square" stroke-width="2" />
</svg>
