<svg viewBox="0 0 800 800" xmlns="http://www.w3.org/2000/svg">
    <polygon points="338,636 338,572 402,572 402,636 " style="fill:rgb(211,211,211);stroke:rgb(211,211,211)" />
    <path d="M 402 572 L 402 636 L 338 636 L 338 572 L 367 572 M 372 572 L 402 572 " fill="none" stroke="black" stroke-linecap="square" stroke-width="2" />
    <text x="370" y="604" alignment-baseline="middle" text-anchor="middle" style="font-family: arial;" font-size="36">Spawn</text>
    <polygon points="407,450 407,549 338,549 338,450 " style="fill:rgb(211,211,211);stroke:rgb(211,211,211)" />
    <path d="M 338 549 L 338 450 L 355 450 M 361 450 L 407 450 L 407 549 L 372 549 M 367 549 L 338 549 " fill="none" stroke="black" stroke-linecap="square" stroke-width="2" />
    <text x="372" y="500" alignment-baseline="middle" text-anchor="middle" style="font-family: arial;" font-size="36">Normal</text>
    <polygon points="314,328 419,328 419,415 314,415 " style="fill:rgb(211,211,211);stroke:rgb(211,211,211)" />
    <path d="M 355 415 L 314 415 L 314 403 M 314 398 L 314 328 L 419 328 L 419 339 M 419 345 L 419 415 L 361 415 M 355 415 " fill="none" stroke="black" stroke-linecap="square" stroke-width="2" />
    <text x="366" y="372" alignment-baseline="middle" text-anchor="middle" style="font-family: arial;" font-size="36">Normal</text>
    <polygon points="512,281 512,380 442,380 442,281 " style="fill:rgb(211,211,211);stroke:rgb(211,211,211)" />
    <path d="M 442 339 L 442 281 L 512 281 L 512 322 M 512 328 L 512 380 L 489 380 M 483 380 L 442 380 L 442 345 M 442 339 " fill="none" stroke="black" stroke-linecap="square" stroke-width="2" />
    <text x="477" y="331" alignment-baseline="middle" text-anchor="middle" style="font-family: arial;" font-size="36">Normal</text>
    <polygon points="547,299 582,299 582,304 594,304 594,299 623,299 623,304 634,304 634,299 669,299 669,339 634,339 634,334 623,334 623,339 594,339 594,334 582,334 582,339 547,339 " style="fill:rgb(211,211,211);stroke:rgb(211,211,211)" />
    <path d="M 582 339 L 547 339 L 547 328 M 547 322 L 547 299 L 582 299 L 582 304 L 594 304 L 594 299 L 605 299 M 611 299 L 623 299 L 623 304 L 634 304 L 634 299 L 669 299 L 669 339 L 634 339 L 634 334 L 623 334 L 623 339 L 594 339 L 594 334 L 582 334 L 582 339 " fill="none" stroke="black" stroke-linecap="square" stroke-width="2" />
    <text x="608" y="319" alignment-baseline="middle" text-anchor="middle" style="font-family: arial;" font-size="36">Normal</text>
    <polygon points="698,147 698,275 570,275 570,147 " style="fill:rgb(211,211,211);stroke:rgb(211,211,211)" />
    <path d="M 570 275 L 570 147 L 698 147 L 698 240 M 698 246 L 698 275 L 611 275 M 605 275 L 570 275 " fill="none" stroke="black" stroke-linecap="square" stroke-width="2" />
    <text x="634" y="211" alignment-baseline="middle" text-anchor="middle" style="font-family: arial;" font-size="36">Boss</text>
    <polygon points="722,229 762,229 762,258 722,258 " style="fill:rgb(211,211,211);stroke:rgb(211,211,211)" />
    <path d="M 762 258 L 722 258 L 722 246 M 722 240 L 722 229 L 762 229 L 762 258 " fill="none" stroke="black" stroke-linecap="square" stroke-width="2" />
    <text x="742" y="244" alignment-baseline="middle" text-anchor="middle" style="font-family: arial;" font-size="36">Exit</text>
    <polygon points="169,351 268,351 268,421 169,421 " style="fill:rgb(211,211,211);stroke:rgb(211,211,211)" />
    <path d="M 268 421 L 169 421 L 169 403 M 169 398 L 169 351 L 186 351 M 192 351 L 268 351 L 268 398 M 268 403 L 268 421 " fill="none" stroke="black" stroke-linecap="square" stroke-width="2" />
    <text x="218" y="386" alignment-baseline="middle" text-anchor="middle" style="font-family: arial;" font-size="36">Normal</text>
    <polygon points="146,240 151,240 151,235 210,235 210,240 215,240 215,299 210,299 210,304 151,304 151,299 146,299 " style="fill:rgb(211,211,211);stroke:rgb(211,211,211)" />
    <path d="M 151 299 L 146 299 L 146 287 M 146 281 L 146 240 L 151 240 L 151 235 L 210 235 L 210 240 L 215 240 L 215 299 L 210 299 L 210 304 L 192 304 M 186 304 L 151 304 L 151 299 " fill="none" stroke="black" stroke-linecap="square" stroke-width="2" />
    <text x="180" y="270" alignment-baseline="middle" text-anchor="middle" style="font-family: arial;" font-size="36">Shop</text>
    <polygon points="122,345 35,345 35,270 122,270 " style="fill:rgb(211,211,211);stroke:rgb(211,211,211)" />
    <path d="M 35 270 L 122 270 L 122 281 M 122 287 L 122 345 L 82 345 M 76 345 L 35 345 L 35 270 " fill="none" stroke="black" stroke-linecap="square" stroke-width="2" />
    <text x="78" y="308" alignment-baseline="middle" text-anchor="middle" style="font-family: arial;" font-size="36">Normal</text>
    <polygon points="52,386 58,386 58,380 116,380 116,386 122,386 122,444 116,444 116,450 58,450 58,444 52,444 " style="fill:rgb(211,211,211);stroke:rgb(211,211,211)" />
    <path d="M 58 444 L 52 444 L 52 386 L 58 386 L 58 380 L 76 380 M 82 380 L 116 380 L 116 386 L 122 386 L 122 398 M 122 403 L 122 444 L 116 444 L 116 450 L 58 450 L 58 444 " fill="none" stroke="black" stroke-linecap="square" stroke-width="2" />
    <text x="87" y="415" alignment-baseline="middle" text-anchor="middle" style="font-family: arial;" font-size="36">Reward</text>
    <polygon points="425,427 541,427 541,520 425,520 " style="fill:rgb(211,211,211);stroke:rgb(211,211,211)" />
    <path d="M 477 520 L 425 520 L 425 427 L 483 427 M 489 427 L 541 427 L 541 479 M 541 485 L 541 520 L 483 520 M 477 520 " fill="none" stroke="black" stroke-linecap="square" stroke-width="2" />
    <text x="483" y="474" alignment-baseline="middle" text-anchor="middle" style="font-family: arial;" font-size="36">Hub</text>
    <polygon points="442,549 448,549 448,543 506,543 506,549 512,549 512,607 506,607 506,613 448,613 448,607 442,607 " style="fill:rgb(211,211,211);stroke:rgb(211,211,211)" />
    <path d="M 448 607 L 442 607 L 442 549 L 448 549 L 448 543 L 477 543 M 483 543 L 506 543 L 506 549 L 512 549 L 512 590 M 512 595 L 512 607 L 506 607 L 506 613 L 448 613 L 448 607 " fill="none" stroke="black" stroke-linecap="square" stroke-width="2" />
    <text x="477" y="578" alignment-baseline="middle" text-anchor="middle" style="font-family: arial;" font-size="36">Reward</text>
    <polygon points="628,654 628,642 576,642 576,654 547,654 547,578 576,578 576,590 628,590 628,578 658,578 658,654 " style="fill:rgb(211,211,211);stroke:rgb(211,211,211)" />
    <path d="M 658 578 L 658 654 L 628 654 L 628 642 L 576 642 L 576 654 L 547 654 L 547 595 M 547 590 L 547 578 L 576 578 L 576 590 L 628 590 L 628 578 L 640 578 M 646 578 L 658 578 " fill="none" stroke="black" stroke-linecap="square" stroke-width="2" />
    <text x="602" y="616" alignment-baseline="middle" text-anchor="middle" style="font-family: arial;" font-size="36">Normal</text>
    <polygon points="663,444 663,531 588,531 588,444 " style="fill:rgb(211,211,211);stroke:rgb(211,211,211)" />
    <path d="M 588 479 L 588 444 L 663 444 L 663 531 L 646 531 M 640 531 L 588 531 L 588 485 M 588 479 " fill="none" stroke="black" stroke-linecap="square" stroke-width="2" />
    <text x="625" y="488" alignment-baseline="middle" text-anchor="middle" style="font-family: arial;" font-size="36">Normal</text>
    <polygon points="361,549 378,549 378,572 361,572 " style="fill:rgb(211,211,211);stroke:rgb(211,211,211)" />
    <path d="M 367 572 L 361 572 L 361 549 L 367 549 M 372 549 L 378 549 L 378 572 L 372 572 M 367 572 " fill="none" stroke="black" stroke-linecap="square" stroke-width="2" />
    <polygon points="349,415 367,415 367,450 349,450 " style="fill:rgb(211,211,211);stroke:rgb(211,211,211)" />
    <path d="M 355 450 L 349 450 L 349 415 L 355 415 M 361 415 L 367 415 L 367 450 L 361 450 M 355 450 " fill="none" stroke="black" stroke-linecap="square" stroke-width="2" />
    <polygon points="419,334 442,334 442,351 419,351 " style="fill:rgb(211,211,211);stroke:rgb(211,211,211)" />
    <path d="M 442 351 L 419 351 L 419 345 M 419 339 L 419 334 L 442 334 L 442 339 M 442 345 L 442 351 " fill="none" stroke="black" stroke-linecap="square" stroke-width="2" />
    <polygon points="268,392 314,392 314,409 268,409 " style="fill:rgb(211,211,211);stroke:rgb(211,211,211)" />
    <path d="M 314 409 L 268 409 L 268 403 M 268 398 L 268 392 L 314 392 L 314 398 M 314 403 L 314 409 " fill="none" stroke="black" stroke-linecap="square" stroke-width="2" />
    <polygon points="512,316 547,316 547,334 512,334 " style="fill:rgb(211,211,211);stroke:rgb(211,211,211)" />
    <path d="M 547 334 L 512 334 L 512 328 M 512 322 L 512 316 L 547 316 L 547 322 M 547 328 L 547 334 " fill="none" stroke="black" stroke-linecap="square" stroke-width="2" />
    <polygon points="477,380 495,380 495,427 477,427 " style="fill:rgb(211,211,211);stroke:rgb(211,211,211)" />
    <path d="M 483 427 L 477 427 L 477 380 L 483 380 M 489 380 L 495 380 L 495 427 L 489 427 M 483 427 " fill="none" stroke="black" stroke-linecap="square" stroke-width="2" />
    <polygon points="599,275 617,275 617,299 599,299 " style="fill:rgb(211,211,211);stroke:rgb(211,211,211)" />
    <path d="M 605 299 L 599 299 L 599 275 L 605 275 M 611 275 L 617 275 L 617 299 L 611 299 M 605 299 " fill="none" stroke="black" stroke-linecap="square" stroke-width="2" />
    <polygon points="698,235 722,235 722,252 698,252 " style="fill:rgb(211,211,211);stroke:rgb(211,211,211)" />
    <path d="M 722 252 L 698 252 L 698 246 M 698 240 L 698 235 L 722 235 L 722 240 M 722 246 L 722 252 " fill="none" stroke="black" stroke-linecap="square" stroke-width="2" />
    <polygon points="180,304 198,304 198,351 180,351 " style="fill:rgb(211,211,211);stroke:rgb(211,211,211)" />
    <path d="M 186 351 L 180 351 L 180 304 L 186 304 M 192 304 L 198 304 L 198 351 L 192 351 M 186 351 " fill="none" stroke="black" stroke-linecap="square" stroke-width="2" />
    <polygon points="122,392 169,392 169,409 122,409 " style="fill:rgb(211,211,211);stroke:rgb(211,211,211)" />
    <path d="M 169 409 L 122 409 L 122 403 M 122 398 L 122 392 L 169 392 L 169 398 M 169 403 L 169 409 " fill="none" stroke="black" stroke-linecap="square" stroke-width="2" />
    <polygon points="122,275 146,275 146,293 122,293 " style="fill:rgb(211,211,211);stroke:rgb(211,211,211)" />
    <path d="M 146 293 L 122 293 L 122 287 M 122 281 L 122 275 L 146 275 L 146 281 M 146 287 L 146 293 " fill="none" stroke="black" stroke-linecap="square" stroke-width="2" />
    <polygon points="70,345 87,345 87,380 70,380 " style="fill:rgb(211,211,211);stroke:rgb(211,211,211)" />
    <path d="M 76 380 L 70 380 L 70 345 L 76 345 M 82 345 L 87 345 L 87 380 L 82 380 M 76 380 " fill="none" stroke="black" stroke-linecap="square" stroke-width="2" />
    <polygon points="471,520 489,520 489,543 471,543 " style="fill:rgb(211,211,211);stroke:rgb(211,211,211)" />
    <path d="M 477 543 L 471 543 L 471 520 L 477 520 M 483 520 L 489 520 L 489 543 L 483 543 M 477 543 " fill="none" stroke="black" stroke-linecap="square" stroke-width="2" />
    <polygon points="541,473 588,473 588,491 541,491 " style="fill:rgb(211,211,211);stroke:rgb(211,211,211)" />
    <path d="M 588 491 L 541 491 L 541 485 M 541 479 L 541 473 L 588 473 L 588 479 M 588 485 L 588 491 " fill="none" stroke="black" stroke-linecap="square" stroke-width="2" />
    <polygon points="512,584 547,584 547,601 512,601 " style="fill:rgb(211,211,211);stroke:rgb(211,211,211)" />
    <path d="M 547 601 L 512 601 L 512 595 M 512 590 L 512 584 L 547 584 L 547 590 M 547 595 L 547 601 " fill="none" stroke="black" stroke-linecap="square" stroke-width="2" />
    <polygon points="634,531 652,531 652,578 634,578 " style="fill:rgb(211,211,211);stroke:rgb(211,211,211)" />
    <path d="M 640 578 L 634 578 L 634 531 L 640 531 M 646 531 L 652 531 L 652 578 L 646 578 M 640 578 " fill="none" stroke="black" stroke-linecap="square" stroke-width="2" />
</svg>
